<?xml version="1.0" encoding="UTF-8" standalone="no"?>
<svg width="418px" height="39px" viewBox="0 0 418 39" version="1.1" xmlns="http://www.w3.org/2000/svg" xmlns:xlink="http://www.w3.org/1999/xlink" xmlns:sketch="http://www.bohemiancoding.com/sketch/ns">
    <!-- Generator: Sketch 3.3 (11970) - http://www.bohemiancoding.com/sketch -->
    <title>logo</title>
    <desc>Created with Sketch.</desc>
    <defs></defs>
    <g id="Page-1" stroke="none" stroke-width="1" fill="none" fill-rule="evenodd" sketch:type="MSPage">
        <g id="logo" sketch:type="MSLayerGroup" fill="#282058">
            <g id="Page-1" sketch:type="MSShapeGroup">
                <g id="logo">
                    <g id="lune_1_1_" transform="translate(53.000000, 0.000000)">
                        <path d="M5.422,12.728 C10.073,4.181 19.799,0.157 28.829,2.354 C19.253,-1.776 7.935,2.002 2.852,11.341 C-2.243,20.703 0.765,32.297 9.494,38.078 C2.688,31.695 0.755,21.301 5.422,12.728 L5.422,12.728 L5.422,12.728 Z" id="Shape"></path>
                    </g>
                    <g id="Group" transform="translate(0.000000, 5.000000)">
                        <path d="M6.62,10.643 L6.554,10.643 L3.64,27.133 L0.429,27.133 L5.528,1.107 L14.104,20.775 L22.68,1.107 L27.779,27.133 L24.567,27.133 L21.653,10.643 L21.587,10.643 L14.104,27.662 L6.62,10.643 L6.62,10.643 Z" id="Shape"></path>
                        <path d="M184.802,0.975 L203.543,20.61 L203.543,2.167 L206.655,2.167 L206.655,28.16 L187.915,8.525 L187.915,27.134 L184.802,27.134 L184.802,0.975 L184.802,0.975 Z" id="Shape"></path>
                        <path d="M253.644,6.902 C252.716,5.345 251.525,4.551 249.637,4.551 C247.651,4.551 245.465,5.908 245.465,8.094 C245.465,10.048 247.386,11.074 248.942,11.67 L250.73,12.365 C254.273,13.756 256.922,15.709 256.922,19.881 C256.922,24.418 253.412,27.662 248.942,27.662 C244.903,27.662 241.756,24.683 241.227,20.676 L244.373,20.014 C244.34,22.762 246.525,24.749 249.207,24.749 C251.89,24.749 253.81,22.497 253.81,19.881 C253.81,17.199 251.658,16.041 249.506,15.147 L247.783,14.418 C244.936,13.193 242.353,11.57 242.353,8.094 C242.353,4.054 245.929,1.637 249.704,1.637 C252.485,1.637 254.77,2.995 256.128,5.412 L253.644,6.902 L253.644,6.902 Z" id="Shape"></path>
                        <path d="M306.526,12.232 L306.526,2.166 L309.638,2.166 L309.638,27.132 L306.526,27.132 L306.526,15.146 L294.638,15.146 L294.638,27.132 L291.526,27.132 L291.526,2.166 L294.638,2.166 L294.638,12.232 L306.526,12.232 L306.526,12.232 Z" id="Shape"></path>
                        <path d="M370.003,14.65 C370.003,22.067 364.143,27.662 356.924,27.662 C349.706,27.662 343.845,22.066 343.845,14.65 C343.845,7.498 349.772,1.637 356.924,1.637 C364.076,1.637 370.003,7.498 370.003,14.65 L370.003,14.65 L370.003,14.65 Z M366.891,14.65 C366.891,9.153 362.786,4.551 356.924,4.551 C351.064,4.551 346.957,9.154 346.957,14.65 C346.957,20.345 351.526,24.749 356.924,24.749 C362.322,24.749 366.891,20.345 366.891,14.65 L366.891,14.65 L366.891,14.65 Z" id="Shape"></path>
                        <path d="M411.197,27.133 L408.085,27.133 L408.085,5.014 L402.158,5.014 L402.158,2.166 L417.124,2.166 L417.124,5.014 L411.197,5.014 L411.197,27.133 L411.197,27.133 Z" id="Shape"></path>
                    </g>
                    <path d="M356.953,18.226 C356.146,18.226 355.494,18.878 355.494,19.683 C355.494,20.489 356.146,21.142 356.953,21.142 C357.758,21.142 358.41,20.489 358.41,19.683 C358.41,18.878 357.758,18.226 356.953,18.226 L356.953,18.226 L356.953,18.226 Z" id="point_1_"></path>
                    <g id="lune_1_2_" transform="translate(126.000000, 1.000000)">
                        <path d="M23.481,25.363 C18.81,33.899 9.075,37.901 0.05,35.683 C9.617,39.834 20.944,36.081 26.048,26.754 C31.165,17.403 28.182,5.804 19.467,0.003 C26.258,6.402 28.167,16.799 23.481,25.363 L23.481,25.363 L23.481,25.363 Z" id="Shape"></path>
                    </g>
                </g>
            </g>
        </g>
    </g>
</svg>